<?xml version="1.0" standalone="no"?>
<!DOCTYPE svg PUBLIC "-//W3C//DTD SVG 20010904//EN"
 "http://www.w3.org/TR/2001/REC-SVG-20010904/DTD/svg10.dtd">
<svg version="1.0" xmlns="http://www.w3.org/2000/svg"
 width="419.000000pt" height="419.000000pt" viewBox="0 0 419.000000 419.000000"
 preserveAspectRatio="xMidYMid meet">

<g transform="translate(0.000000,419.000000) scale(0.100000,-0.100000)"
fill="#000000" stroke="none">
<path d="M295 4180 c-16 -4 -79 -8 -140 -9 -60 -1 -120 -4 -133 -7 l-22 -6 0
-313 0 -312 97 2 c247 5 223 2 223 29 0 19 -6 24 -37 30 -21 3 -53 6 -70 6
l-33 0 -2 105 c-1 58 -2 126 -3 152 l0 46 73 -2 72 -2 0 38 c0 21 3 86 7 146
3 59 4 106 2 106 -2 -1 -17 -5 -34 -9z"/>
<path d="M350 4158 c0 -17 3 -28 8 -24 7 7 8 11 11 37 1 8 15 10 41 6 22 -3
40 -1 40 4 0 5 -22 9 -50 9 -49 0 -50 0 -50 -32z"/>
<path d="M467 4153 c8 -52 13 -54 13 -5 0 23 -4 42 -9 42 -6 0 -7 -17 -4 -37z"/>
<path d="M502 4065 c1 -71 0 -184 0 -250 -2 -112 -3 -121 -23 -130 -12 -6 -28
-27 -37 -48 -14 -36 -13 -41 10 -85 13 -26 24 -56 24 -66 -1 -11 9 -30 22 -43
35 -35 29 -53 -18 -53 -41 0 -44 -4 -40 -49 1 -13 -2 -21 -7 -18 -5 4 -43 -11
-84 -32 -56 -29 -78 -46 -90 -72 -18 -35 -39 -250 -39 -384 0 -38 -5 -110 -10
-160 -5 -49 -14 -151 -20 -227 l-10 -136 30 -78 c16 -43 30 -83 30 -89 0 -5
14 -18 32 -28 l31 -18 -8 -77 c-4 -42 -7 -85 -7 -94 1 -11 -7 -18 -19 -18 -14
0 -19 -7 -19 -25 0 -18 5 -25 20 -25 12 0 20 -7 20 -16 0 -13 -9 -14 -57 -9
-74 8 -95 14 -88 25 3 5 1 11 -5 15 -6 4 -10 -4 -10 -18 0 -23 5 -26 63 -32
73 -8 97 -14 95 -23 -1 -4 4 -20 11 -36 8 -20 8 -32 1 -41 -13 -16 -133 -39
-162 -31 -15 3 -30 -2 -44 -15 l-22 -21 -18 27 c-9 14 -25 59 -35 98 l-17 72
-1 -172 c-1 -95 2 -174 7 -174 4 -1 22 -3 41 -5 34 -4 81 -39 81 -61 0 -7 -14
-19 -30 -28 -17 -9 -30 -19 -30 -23 0 -5 -16 -16 -35 -25 -23 -11 -35 -24 -35
-37 0 -20 4 -21 63 -14 80 9 100 19 93 48 -4 17 5 32 39 66 27 26 45 53 45 66
0 28 44 64 77 64 21 0 23 2 10 14 -8 9 -24 12 -36 9 -11 -3 -29 -2 -38 2 -10
4 -30 7 -45 6 -15 -1 -33 1 -40 5 -7 4 -25 8 -42 8 -33 1 -50 26 -17 26 12 0
21 -4 21 -10 0 -5 5 -10 11 -10 5 0 7 5 4 10 -7 11 6 13 29 4 9 -3 14 -9 12
-13 -3 -4 12 -7 32 -8 20 -1 60 -2 88 -3 l51 -2 28 -72 c15 -39 45 -91 66
-115 43 -48 44 -53 28 -100 -9 -24 -8 -35 2 -47 11 -13 9 -19 -11 -35 -14 -10
-42 -22 -62 -25 -26 -4 -40 -13 -44 -27 -9 -29 17 -45 85 -52 31 -4 68 -10 84
-15 21 -7 27 -6 27 5 0 14 -19 19 -122 30 -70 8 -79 30 -16 40 27 5 52 18 69
36 15 16 36 29 48 29 19 0 21 -6 21 -52 0 -31 4 -48 8 -40 5 7 7 38 6 70 -3
64 -1 68 40 100 38 29 47 28 86 -10 31 -29 32 -32 15 -44 -10 -8 -39 -64 -64
-126 -44 -107 -48 -113 -76 -115 -17 0 -37 -2 -45 -3 -20 -3 49 -22 80 -22 28
-1 296 94 312 110 8 8 1 13 -21 19 -38 10 -42 24 -12 39 12 6 33 21 46 34 22
21 25 21 47 6 12 -9 33 -16 46 -16 22 0 23 -2 17 -42 -4 -24 -15 -48 -24 -55
-26 -20 1 -15 69 13 44 18 103 30 190 40 139 15 255 37 273 52 7 5 54 13 106
17 l94 7 -22 -30 c-23 -33 -27 -67 -9 -78 7 -4 48 -20 92 -35 59 -21 89 -37
111 -62 16 -19 38 -37 48 -41 9 -3 17 -14 17 -24 0 -10 9 -45 20 -78 26 -74
32 -250 11 -305 -13 -34 -12 -39 8 -73 19 -30 21 -41 12 -66 -5 -17 -8 -37 -5
-44 7 -19 -30 -52 -94 -83 -29 -14 -55 -30 -58 -35 -11 -17 21 -38 62 -43 l39
-5 -42 16 c-24 9 -43 20 -43 25 0 5 24 20 53 35 28 14 66 39 82 54 28 27 32
28 73 17 37 -10 47 -9 77 7 19 11 37 17 39 15 2 -2 7 -30 10 -61 9 -67 -3 -78
-74 -72 -25 3 -52 0 -60 -5 -22 -15 -6 -23 23 -12 17 7 47 7 87 0 60 -9 65 -8
273 60 117 38 249 80 295 94 l83 26 9 -23 c25 -66 124 -46 525 102 84 31 131
32 170 6 22 -16 85 -19 85 -4 0 11 -25 25 -63 34 -21 5 -27 4 -21 -5 4 -7 2
-10 -7 -7 -8 3 -15 12 -17 21 -4 22 97 69 115 54 7 -5 46 -7 88 -5 78 4 85 0
85 -44 0 -11 -8 -22 -20 -25 -11 -3 -20 -9 -20 -14 0 -12 4 -11 35 3 18 8 25
18 22 30 -3 10 2 19 12 23 29 9 34 6 36 -20 1 -33 16 -46 56 -51 19 -2 50 -6
69 -10 35 -6 38 -3 103 69 l67 75 0 195 0 195 -78 6 c-271 21 -358 30 -366 37
-4 4 -18 42 -30 86 -24 85 -25 72 25 273 20 81 56 244 68 310 21 116 34 170
40 170 4 0 12 -23 18 -50 20 -85 34 -105 73 -108 60 -6 107 14 138 61 32 46
49 97 32 97 -5 0 -10 -4 -10 -9 0 -5 -5 -22 -11 -38 -10 -28 -11 -27 -44 45
l-34 73 20 34 c12 19 16 35 10 35 -6 0 -15 -9 -21 -21 -7 -11 -14 -19 -16 -16
-3 2 5 20 18 39 l23 34 27 -70 c16 -39 28 -77 28 -83 0 -7 5 -13 11 -13 16 0
8 28 -45 154 -25 60 -43 113 -40 118 7 10 -36 47 -54 48 -7 0 -25 25 -39 56
-24 54 -25 58 -13 137 7 45 20 105 28 132 11 32 16 82 15 138 l-1 88 -81 80
c-45 43 -81 83 -81 89 0 11 -40 50 -52 50 -4 0 -7 -5 -5 -11 1 -6 -21 -19 -49
-28 -71 -24 -139 -66 -165 -102 -25 -35 -34 -30 -54 27 -8 22 -14 31 -15 21 0
-10 7 -34 15 -53 13 -32 13 -38 -2 -61 -10 -14 -20 -53 -24 -87 -15 -130 -40
-312 -45 -326 -4 -10 -11 -1 -20 25 -13 36 -18 219 -10 368 1 20 -2 37 -6 37
-4 0 -8 6 -8 13 -1 6 -19 30 -40 52 -22 22 -40 43 -40 47 0 10 37 17 75 15 28
-2 30 1 33 36 3 31 7 37 27 37 34 0 41 28 7 32 l-27 3 0 93 c0 72 -3 91 -13
87 -7 -3 -36 8 -65 25 -40 23 -47 31 -34 36 11 4 30 -3 51 -20 19 -14 46 -26
61 -26 17 0 24 -4 19 -11 -5 -8 1 -10 20 -7 14 3 26 1 26 -3 0 -5 -4 -9 -10
-9 -5 0 -10 -5 -10 -10 0 -6 10 -8 24 -4 17 4 27 0 36 -13 9 -16 10 -15 4 7
-4 14 -10 26 -14 28 -4 2 -6 12 -3 23 5 17 3 18 -20 10 -14 -5 -34 -7 -46 -4
-21 5 -21 8 -21 315 l0 310 53 -6 c28 -4 109 -8 180 -11 l127 -5 0 127 c0 71
3 145 6 166 l7 37 -592 0 -591 0 0 -168 c0 -293 12 -622 23 -615 6 4 7 -5 3
-23 -6 -29 -6 -29 11 -8 19 23 53 39 53 25 0 -5 -7 -14 -16 -22 -14 -12 -14
-14 5 -21 30 -11 27 -32 -4 -24 -19 5 -23 3 -19 -9 4 -11 2 -13 -9 -9 -10 4
-15 0 -14 -13 2 -24 18 -34 41 -27 10 4 16 2 13 -3 -8 -13 31 -55 46 -50 17 5
40 -21 33 -39 -3 -9 -15 -18 -26 -21 -31 -8 -52 -49 -44 -86 4 -18 7 -36 6
-41 -2 -4 3 -16 10 -25 9 -11 6 -10 -9 3 -13 10 -21 22 -18 25 2 4 -5 8 -16 8
-19 2 -20 1 -5 -22 18 -28 20 -39 6 -30 -5 3 -10 0 -10 -7 0 -7 -14 -19 -31
-27 -35 -15 -44 -9 -55 39 -11 50 -23 68 -68 98 -24 17 -58 40 -74 52 -16 12
-41 23 -55 23 -23 2 -25 6 -24 40 2 36 1 38 -36 48 -38 10 -42 29 -7 29 18 0
18 3 -6 37 -15 23 -24 47 -21 60 2 13 0 23 -4 23 -5 0 -9 29 -9 65 0 37 4 65
10 65 6 0 10 -20 10 -45 0 -25 5 -45 10 -45 6 0 10 7 10 15 0 23 17 18 25 -7
4 -13 7 -26 6 -30 0 -4 13 -5 31 -1 22 4 29 3 24 -5 -4 -7 6 -15 26 -20 18 -5
34 -5 36 -1 2 4 9 6 17 3 10 -4 12 0 8 15 -6 24 9 28 27 6 7 -8 16 -15 21 -15
5 0 9 173 9 390 l0 390 -491 0 -491 0 6 -412 c14 -948 21 -1213 26 -1043 3 88
7 137 8 108 1 -28 7 -55 12 -58 6 -4 10 -28 9 -53 -1 -26 2 -63 6 -83 4 -23 3
-39 -4 -43 -6 -4 -11 -12 -11 -17 0 -6 4 -8 9 -5 5 3 12 -1 15 -10 9 -23 7
-31 -4 -14 -6 10 -9 6 -8 -18 1 -18 5 -29 11 -25 6 3 7 1 3 -6 -4 -6 0 -23 9
-37 9 -14 15 -27 13 -29 -2 -2 -40 56 -86 128 l-82 132 0 744 0 744 -412 -7
c-227 -4 -435 -9 -462 -11 -28 -2 -56 1 -63 7 -8 6 -17 8 -21 4 -4 -4 1 -13
11 -20 15 -12 17 -35 17 -235 0 -215 -1 -221 -20 -221 -20 0 -20 5 -16 223 2
122 0 231 -5 242 -5 12 -8 -31 -7 -110z m2127 -22 c1 -7 -3 -13 -9 -13 -5 0
-10 15 -9 33 0 27 2 29 9 12 5 -11 9 -26 9 -32z m131 17 c0 -5 -5 -10 -11 -10
-5 0 -7 5 -4 10 3 6 8 10 11 10 2 0 4 -4 4 -10z m217 -62 c32 -36 34 -44 22
-97 -17 -80 -71 -105 -123 -56 -20 18 -26 34 -26 64 0 58 15 91 38 84 12 -3
22 2 25 11 9 23 40 20 64 -6z m-159 -80 l3 -88 -31 0 c-16 -1 -65 -1 -107 -2
l-78 0 -3 88 -3 89 108 0 108 0 3 -87z m-1790 59 c9 -6 12 -53 12 -178 l0
-171 -46 3 c-38 3 -50 -1 -65 -20 -11 -13 -19 -31 -19 -40 0 -10 8 -3 20 16
12 20 26 31 39 30 11 -1 18 -3 16 -5 -2 -3 2 -14 10 -26 8 -11 15 -29 15 -39
0 -16 3 -17 15 -7 12 10 15 9 15 -4 0 -9 -6 -19 -14 -22 -9 -3 -12 -12 -9 -22
5 -12 2 -14 -12 -9 -15 6 -16 5 -6 -7 10 -12 16 -13 26 -3 7 7 11 15 9 18 -2
4 3 10 11 13 12 4 14 15 9 48 -7 42 -7 43 13 26 11 -10 39 -19 66 -20 37 -2
47 -7 47 -21 0 -9 3 -16 8 -15 4 1 17 -1 29 -5 20 -8 21 -12 16 -80 -6 -80 -8
-86 -25 -69 -20 20 -32 13 -13 -8 9 -10 22 -18 27 -17 6 1 12 -2 14 -8 8 -22
-14 -35 -64 -36 -30 -1 -65 -10 -82 -21 -27 -16 -29 -20 -18 -38 7 -11 18 -18
25 -16 16 6 66 -53 59 -69 -2 -7 5 -21 16 -32 11 -10 31 -40 45 -68 20 -43 21
-46 4 -25 -11 14 -21 29 -21 33 0 5 -5 5 -10 2 -7 -4 -7 -13 0 -26 18 -33 4
-21 -24 21 -14 22 -26 51 -26 65 0 22 -3 24 -19 16 -19 -11 -31 -5 -31 13 0 6
5 4 11 -4 7 -10 9 -11 7 -2 -2 8 -8 13 -13 13 -16 0 -45 31 -39 40 3 5 -6 5
-20 -1 -69 -26 -81 -48 -90 -165 -3 -38 -12 -133 -20 -210 -20 -196 -3 -283
52 -272 23 4 24 3 17 -32 -9 -40 -9 -66 -5 -186 2 -44 -2 -156 -9 -250 -7 -93
-14 -199 -16 -235 l-4 -65 -38 -9 c-47 -11 -132 -12 -195 -2 -52 8 -65 25 -20
27 l27 2 -28 4 c-22 4 -28 9 -25 26 2 13 13 24 28 28 14 4 21 8 15 8 -5 1 -2
6 8 12 9 5 22 7 28 4 5 -4 16 -1 24 5 8 6 20 8 27 4 10 -5 10 -4 2 5 -8 9 -18
10 -30 4 -33 -15 -68 -10 -72 11 -4 21 16 93 31 114 6 7 7 15 4 18 -5 5 18 78
29 92 1 2 11 -2 22 -9 16 -10 29 -9 73 8 l54 20 -4 144 c-3 141 -15 199 -42
199 -14 0 -1 42 18 57 12 10 14 24 8 70 -4 32 -8 137 -9 233 -3 200 -16 279
-62 361 l-31 56 51 -5 c28 -2 56 -10 62 -18 6 -8 20 -11 33 -7 17 4 19 8 9 15
-10 7 -10 10 4 18 27 16 11 43 -23 38 -16 -3 -29 -1 -29 4 0 5 -10 6 -22 2
-32 -10 -79 -7 -91 5 -8 8 -4 11 13 11 46 0 11 12 -39 13 -41 0 -51 4 -49 16
4 23 -10 41 -32 41 -28 0 -31 12 -19 76 14 73 5 133 -27 179 -22 34 -24 44
-24 170 l0 135 28 1 c74 2 197 10 200 14 7 7 167 0 180 -8z m387 -17 c3 -5 1
-10 -4 -10 -6 0 -11 5 -11 10 0 6 2 10 4 10 3 0 8 -4 11 -10z m34 -76 c0 -96
-7 -110 -11 -22 -1 31 -5 55 -9 52 -4 -2 -2 9 4 26 6 16 12 30 14 30 1 0 2
-39 2 -86z m-301 69 c-10 -2 -26 -2 -35 0 -10 3 -2 5 17 5 19 0 27 -2 18 -5z
m55 -13 c3 -11 4 -20 3 -20 -1 0 -9 9 -19 20 -13 15 -14 20 -3 20 7 0 16 -9
19 -20z m87 0 c-6 -11 -13 -20 -16 -20 -2 0 0 9 6 20 6 11 13 20 16 20 2 0 0
-9 -6 -20z m67 -2 c-3 -8 -6 -5 -6 6 -1 11 2 17 5 13 3 -3 4 -12 1 -19z m52
-32 c-3 -3 -11 5 -18 17 -13 21 -12 21 5 5 10 -10 16 -20 13 -22z m38 -178
c-2 -13 -4 -3 -4 22 0 25 2 35 4 23 2 -13 2 -33 0 -45z m1501 -115 l-3 -108
-39 3 c-37 4 -38 3 -32 -22 5 -21 0 -32 -26 -56 -32 -29 -32 -30 -11 -36 19
-5 20 -9 10 -25 -9 -15 -24 -19 -69 -19 l-58 0 0 185 0 185 115 0 116 0 -3
-107z m-1503 -140 c-3 -13 -13 -23 -23 -23 -14 0 -15 2 -2 10 11 7 16 37 20
127 l5 118 3 -105 c2 -58 0 -115 -3 -127z m925 -10 c0 -21 -3 -24 -9 -14 -5 8
-7 20 -4 28 8 21 13 15 13 -14z m850 17 c0 -13 -20 -13 -40 0 -12 8 -9 10 13
10 15 0 27 -4 27 -10z m47 -132 c-2 -29 -3 -8 -3 47 0 55 1 79 3 53 2 -26 2
-71 0 -100z m-2633 96 c28 -11 17 -22 -24 -26 -22 -2 -40 -1 -40 3 0 4 24 19
47 28 1 1 8 -2 17 -5z m2596 -15 c0 -18 -2 -20 -15 -9 -13 11 -13 15 -3 21 18
12 18 12 18 -12z m-1884 -70 c-3 -17 -6 -47 -6 -65 0 -24 -5 -34 -15 -34 -8 0
-15 5 -15 10 0 6 5 10 12 10 9 0 9 3 0 12 -10 10 -15 10 -22 -2 -8 -13 -10
-12 -10 3 0 10 -4 16 -8 13 -4 -2 -14 -1 -21 3 -10 6 -10 14 1 40 l13 32 21
-20 c24 -21 34 -18 34 11 0 10 5 18 11 18 8 0 9 -11 5 -31z m659 -37 c14 -33
16 -45 6 -55 -9 -9 -14 -9 -21 2 -7 12 -12 12 -34 -3 -36 -23 -33 -3 5 27 l30
23 -41 13 c-43 13 -45 31 -3 31 20 0 24 4 19 18 -14 36 20 -12 39 -56z m-578
22 c3 -8 1 -20 -5 -26 -15 -15 -43 8 -35 28 7 19 32 18 40 -2z m1527 -9 c19
26 62 -28 71 -90 4 -27 14 -63 23 -78 15 -25 22 -28 60 -25 23 2 42 2 42 1 0
-1 3 -8 6 -16 4 -12 -9 -16 -63 -21 -37 -4 -92 -9 -120 -12 -57 -5 -65 4 -42
47 5 11 7 29 4 40 -6 17 -13 20 -39 15 -25 -5 -34 -2 -45 16 -10 17 -11 23 -2
26 12 4 33 45 35 67 1 6 8 20 16 32 14 22 14 22 28 2 13 -18 15 -19 26 -4z
m-740 -66 c-3 -5 -14 -9 -25 -9 -17 0 -18 3 -9 21 9 16 14 18 26 9 7 -7 11
-16 8 -21z m-789 -5 c0 -10 -8 -20 -17 -22 -18 -3 -26 27 -11 42 12 11 28 0
28 -20z m637 -31 c9 -10 6 -13 -17 -13 -17 0 -41 -3 -55 -7 -24 -6 -24 -5 -8
13 20 22 61 25 80 7z m-266 -22 c8 -15 14 -19 19 -11 5 8 11 8 17 2 6 -6 17
-8 24 -5 8 3 14 -1 14 -11 0 -9 7 -16 15 -16 8 0 15 -4 15 -10 0 -5 7 -10 15
-10 17 0 20 -25 5 -35 -5 -3 -10 -14 -10 -25 0 -21 -29 -35 -43 -21 -5 5 -16
7 -23 4 -8 -3 -14 0 -14 6 0 6 -7 8 -17 4 -13 -5 -15 -3 -9 13 5 10 11 28 13
39 5 18 4 18 -8 4 -17 -20 -49 -32 -49 -19 0 6 7 10 15 10 8 0 15 7 15 16 0 9
-6 14 -13 11 -8 -3 -20 -1 -28 4 -11 7 -9 9 9 9 12 0 22 5 22 10 0 6 -4 10 -9
10 -5 0 -8 11 -7 25 1 29 16 28 32 -4z m-372 -11 c29 -11 33 -31 11 -50 -12
-10 -15 -10 -15 1 0 11 -2 11 -9 1 -6 -10 -10 -10 -20 2 -8 9 -8 16 -2 20 6 4
8 13 4 21 -6 18 -3 18 31 5z m1939 -104 c11 -27 16 -54 12 -72 -13 -57 -15
-59 -31 -36 -20 29 -34 28 -34 -3 0 -20 -24 -45 -44 -45 -3 0 -5 22 -4 50 0
42 4 53 29 74 18 16 29 34 29 50 0 40 23 30 43 -18z m-1943 -1 c4 3 10 -4 13
-15 3 -14 0 -20 -11 -20 -8 0 -13 3 -9 6 3 4 -1 13 -9 21 -8 8 -11 20 -7 26 5
8 9 6 11 -6 2 -9 7 -15 12 -12z m1350 5 c0 -5 -4 -10 -10 -10 -5 0 -10 5 -10
10 0 6 5 10 10 10 6 0 10 -4 10 -10z m-969 -49 c7 -10 20 -16 29 -14 10 3 20
1 23 -4 8 -12 -50 -73 -69 -73 -17 0 -19 21 -2 38 9 9 8 16 -5 30 -9 10 -17
24 -17 30 0 19 29 14 41 -7z m1125 -1 c9 0 13 -4 9 -9 -3 -5 -1 -12 5 -16 17
-11 11 -25 -10 -25 -12 0 -34 -7 -50 -15 -30 -15 -30 -15 -30 11 0 32 28 67
48 59 7 -3 20 -5 28 -5z m-1046 -10 c0 -5 -2 -10 -4 -10 -3 0 -8 5 -11 10 -3
6 -1 10 4 10 6 0 11 -4 11 -10z m1358 -25 c4 -30 4 -30 -17 -11 -26 23 -28 49
-3 44 10 -2 18 -14 20 -33z m-215 -76 c21 -34 37 -62 35 -63 -2 -1 -18 -7 -36
-13 -29 -10 -34 -9 -50 13 -40 57 -52 68 -29 24 28 -51 45 -101 29 -85 -6 6
-20 28 -32 50 -12 22 -30 54 -41 71 -19 31 -19 31 4 42 67 32 78 29 120 -39z
m-1566 -85 c-2 -115 -9 -133 -37 -99 -9 11 -11 42 -5 119 6 94 8 103 25 99 17
-4 18 -16 17 -119z m1233 75 c3 -3 12 -9 20 -12 12 -4 11 -6 -2 -6 -10 -1 -18
-5 -18 -11 0 -5 7 -7 15 -4 19 8 19 -10 0 -26 -11 -9 -12 -16 -5 -25 8 -9 7
-14 -2 -17 -10 -4 -10 -9 2 -23 13 -17 13 -18 0 -13 -8 3 -24 1 -35 -4 -20 -8
-20 -8 0 -5 13 3 27 -5 37 -19 16 -21 16 -22 0 -29 -13 -5 -8 -10 23 -25 22
-10 36 -19 31 -19 -5 -1 -4 -7 3 -14 12 -15 12 -85 -1 -93 -4 -3 -6 -9 -3 -14
3 -4 -2 -10 -10 -14 -8 -3 -19 3 -25 12 -10 15 -11 14 -7 -5 4 -16 0 -23 -11
-24 -15 -1 -15 -2 1 -6 22 -6 22 -14 -3 -41 -12 -12 -16 -22 -11 -22 5 0 13 5
16 11 4 6 14 8 22 5 11 -5 13 -1 8 15 -6 17 -4 20 6 13 10 -6 10 -3 -1 11 -8
10 -10 16 -3 12 6 -4 14 -1 17 5 2 7 2 -27 -1 -77 -3 -49 -11 -101 -18 -115
-10 -20 -10 -31 2 -65 11 -30 12 -49 4 -75 -5 -19 -12 -55 -15 -80 -3 -25 -10
-68 -16 -97 -11 -50 -12 -52 -36 -42 -32 12 -31 12 -31 -6 0 -8 4 -15 9 -15 4
0 8 -5 8 -11 0 -7 -9 -9 -23 -5 -14 3 -33 -1 -45 -10 -12 -8 -22 -12 -23 -7 0
6 -28 -72 -29 -83 0 -1 14 -4 30 -7 20 -4 30 -13 30 -24 1 -16 2 -16 13 -2 18
23 48 37 80 35 23 -1 27 2 24 16 -4 15 1 18 31 18 23 0 44 8 60 23 l24 22 -8
-30 c-4 -16 -15 -40 -25 -53 l-17 -23 -20 21 -20 21 -4 -23 c-3 -13 -4 -77 -3
-143 0 -73 -3 -123 -10 -127 -6 -5 -6 -8 3 -8 6 0 12 -10 12 -23 0 -22 -7 -25
-102 -41 -57 -10 -113 -22 -125 -27 -16 -6 -23 -5 -25 4 0 6 -3 23 -5 37 -30
219 -32 238 -21 339 5 57 7 117 4 132 -3 16 -1 31 5 34 5 4 8 24 5 46 -3 32
-1 41 16 50 18 10 20 17 13 84 -6 68 -5 74 14 80 44 14 54 56 62 275 4 113 8
206 8 208 1 1 8 2 16 2 18 0 38 37 31 57 -4 9 -1 22 5 29 6 8 9 24 6 36 -4 12
-1 29 6 37 9 12 9 13 0 7 -15 -9 -36 2 -28 14 5 9 54 -7 65 -21z m949 -46 c31
-67 52 -135 47 -149 -3 -9 -1 -12 4 -9 6 3 10 5 10 3 0 -2 11 -34 25 -72 29
-81 29 -76 11 -76 -8 0 -16 -5 -18 -11 -5 -15 -59 104 -63 138 -1 13 4 31 13
39 21 22 6 31 -17 10 -18 -17 -20 -16 -32 18 -9 25 -16 32 -21 23 -5 -7 -6 1
-2 17 6 23 2 32 -17 48 -24 18 -24 19 -5 33 30 22 51 18 65 -12z m-999 -6 c0
-7 -12 -14 -27 -15 l-28 -2 25 14 c14 8 26 14 28 15 1 1 2 -5 2 -12z m931 -34
c13 -16 12 -17 -3 -4 -10 7 -18 15 -18 17 0 8 8 3 21 -13z m-958 -7 c8 5 8 2
0 -7 -18 -18 -16 -34 2 -19 22 19 18 6 -5 -15 -20 -18 -20 -17 -19 21 0 21 3
33 6 26 2 -6 10 -9 16 -6z m471 -68 c29 -142 29 -138 10 -104 -10 18 -19 25
-23 17 -9 -14 -44 47 -62 107 -14 48 -6 62 37 62 18 0 23 -11 38 -82z m-1451
-380 c-5 -7 -9 -25 -8 -40 0 -15 -2 -25 -5 -23 -3 2 -12 0 -20 -6 -11 -6 -11
-9 -2 -9 13 0 11 -59 -3 -94 -5 -12 -3 -21 6 -27 12 -8 12 -10 -1 -19 -13 -8
-16 4 -20 83 -5 74 -7 53 -10 -110 l-5 -201 35 -11 c19 -6 86 -17 149 -23 126
-14 136 -21 143 -88 2 -30 0 -35 -17 -33 -37 5 -269 32 -330 39 -33 4 -58 4
-55 1 3 -2 84 -15 180 -26 236 -30 220 -25 220 -65 0 -33 -3 -36 -57 -56 -56
-21 -59 -21 -178 -5 -66 9 -131 18 -145 20 -14 2 -29 4 -35 4 -5 1 -27 17 -48
36 -30 28 -36 39 -28 49 8 10 7 24 -4 56 -22 63 -19 76 18 88 32 10 32 10 5
11 -25 1 -28 4 -28 39 0 70 7 80 53 79 l42 -1 -4 122 c-3 121 -3 122 21 131
13 5 30 16 37 25 7 9 19 16 25 16 6 0 25 11 41 25 34 27 42 31 28 13z m-183
-40 c0 -5 -4 -8 -10 -8 -5 0 -10 10 -10 23 0 18 2 19 10 7 5 -8 10 -18 10 -22z
m-19 -41 c-10 -9 -11 -8 -5 6 3 10 9 15 12 12 3 -3 0 -11 -7 -18z m1942 -67
c3 -11 2 -20 -3 -20 -14 0 -32 29 -25 40 9 14 21 5 28 -20z m-5 -40 c37 -26
50 -40 39 -40 -2 0 -18 11 -37 25 -34 25 -60 32 -60 17 0 -4 20 -18 45 -30 24
-12 63 -35 86 -52 23 -16 48 -30 56 -30 7 0 13 -8 14 -17 0 -11 3 -13 6 -5 9
22 23 2 23 -34 0 -36 -8 -42 -28 -22 -6 6 -15 8 -19 4 -4 -4 2 -15 15 -24 19
-15 21 -22 13 -47 -4 -17 -19 -65 -32 -109 -13 -43 -29 -81 -36 -83 -8 -3 -39
6 -71 20 -31 14 -69 28 -84 31 -93 19 -88 5 -53 160 13 60 28 113 34 119 5 5
42 -7 95 -32 93 -44 96 -45 96 -33 0 5 -43 29 -95 53 -90 41 -95 45 -89 69 4
14 8 36 10 50 1 14 3 28 3 33 2 15 29 6 69 -23z m-3062 -41 c0 -21 -3 -39 -6
-39 -17 0 -48 33 -52 54 -4 21 -1 25 21 28 34 4 36 3 37 -43z m3699 35 c1 -5
6 -25 13 -45 10 -30 10 -42 -4 -74 -18 -44 -30 -36 -39 30 -4 22 -8 49 -9 60
-2 11 1 26 7 33 11 14 32 11 32 -4z m-2137 -224 c-6 -25 -12 -46 -14 -48 -1
-2 -38 1 -81 7 -162 23 -161 20 -23 55 69 17 126 31 127 31 1 0 -3 -21 -9 -45z
m821 -29 c0 -15 -3 -20 -6 -11 -3 8 -10 23 -15 32 -6 14 -5 16 7 12 8 -4 15
-18 14 -33z m-2409 -57 c0 -8 -4 -12 -10 -9 -5 3 -10 10 -10 16 0 5 5 9 10 9
6 0 10 -7 10 -16z m941 -214 c17 -16 36 -30 43 -30 27 0 214 -101 239 -130 15
-16 27 -32 27 -35 0 -3 -14 -5 -31 -5 -16 0 -28 -4 -25 -9 4 -5 0 -11 -6 -14
-7 -3 5 -3 28 0 37 5 42 3 47 -18 3 -13 4 -25 2 -27 -2 -2 -34 1 -72 7 -92 14
-215 23 -183 12 22 -7 18 -9 -25 -14 -27 -4 -75 -6 -106 -6 -50 1 -56 4 -52
20 3 11 9 22 14 25 5 3 9 16 9 30 0 24 1 24 68 20 l67 -5 -65 10 c-35 5 -66
11 -67 13 -17 17 17 195 39 204 4 2 6 8 2 13 -3 5 -2 24 3 42 7 30 8 29 11
-20 2 -43 9 -58 33 -83z m2111 75 c26 -7 49 -11 51 -9 2 3 8 -28 12 -68 3 -40
11 -78 16 -84 5 -7 12 -38 15 -70 3 -33 9 -84 13 -114 5 -30 7 -57 4 -60 -2
-3 -41 -7 -86 -11 -48 -3 -82 -10 -85 -17 -2 -7 -10 -12 -18 -12 -8 0 -14 -5
-14 -11 0 -12 93 -8 183 7 l37 7 0 -66 c0 -36 4 -67 9 -69 7 -2 51 -179 51
-204 0 -2 -26 -11 -57 -19 -32 -9 -93 -32 -136 -51 -61 -27 -82 -33 -92 -24
-8 7 -35 49 -61 93 -26 45 -57 96 -70 114 -22 29 -24 41 -23 145 0 62 6 133
13 158 8 25 18 63 24 85 8 32 42 134 46 142 1 1 39 11 86 23 47 12 93 31 103
41 10 11 13 19 7 19 -5 0 -10 10 -11 23 -1 23 -4 18 -13 -24 -4 -21 -12 -26
-36 -27 -20 0 -28 3 -24 10 5 8 1 9 -12 5 -12 -5 -7 4 14 23 17 16 32 32 32
35 0 7 -34 -7 -52 -22 -13 -11 -21 -12 -37 -3 -24 12 -24 11 -11 44 8 23 12
24 42 15 18 -6 54 -17 80 -24z m-2370 -100 c-1 -66 -4 -136 -7 -155 -3 -19 -7
-60 -10 -90 -4 -30 -8 -56 -10 -58 -2 -2 -45 -13 -95 -24 -85 -19 -92 -19
-116 -3 -15 10 -23 22 -20 31 3 8 -5 24 -20 36 -22 20 -24 28 -18 62 3 22 6
57 6 78 -1 32 3 38 21 39 22 2 22 2 -1 6 -20 4 -21 9 -16 42 3 22 1 48 -5 59
-9 18 -8 23 10 33 12 6 43 9 70 7 39 -4 59 1 116 29 37 18 75 32 83 30 12 -2
14 -23 12 -122z m2402 116 c4 -5 -3 -7 -14 -4 -23 6 -26 13 -6 13 8 0 17 -4
20 -9z m-1538 -102 c30 12 58 21 62 21 5 0 9 -19 11 -41 2 -35 -1 -40 -14 -35
-25 9 -147 27 -152 22 -3 -2 29 -10 71 -17 69 -12 89 -21 69 -32 -5 -2 -48 1
-98 7 -82 10 -90 13 -96 36 l-7 25 -1 -27 c-1 -32 -20 -38 -28 -9 -3 13 -21
22 -58 30 -29 7 -58 18 -64 25 -8 9 21 8 120 -6 130 -19 130 -19 185 1z
m-1656 -9 c0 -5 -5 -10 -11 -10 -5 0 -7 5 -4 10 3 6 8 10 11 10 2 0 4 -4 4
-10z m1645 -86 c39 -6 39 -7 15 -17 -55 -23 -95 -41 -104 -45 -5 -3 -6 7 -3
21 6 22 3 27 -24 36 -46 16 -27 29 28 20 27 -5 66 -11 88 -15z m-136 -13 c35
-19 35 -22 -13 -55 -14 -9 -20 -30 -25 -84 -6 -67 -1 -92 13 -57 3 8 13 15 23
15 12 0 14 3 6 8 -7 4 -10 17 -7 28 5 18 12 20 66 16 33 -3 63 0 67 5 8 12 93
44 99 38 3 -3 7 -30 10 -60 3 -38 1 -55 -7 -55 -7 0 -10 3 -8 8 3 4 -43 7
-102 8 -63 0 -90 -2 -66 -6 46 -7 36 -13 -48 -29 -45 -8 -64 -17 -83 -41 -37
-43 -57 -40 -49 8 5 31 4 35 -7 21 -9 -11 -66 -24 -188 -43 -96 -15 -186 -30
-200 -32 -25 -4 -25 -4 -2 6 24 10 236 61 340 81 l62 12 0 73 c0 62 4 81 25
114 28 44 44 48 94 21z m550 -53 c1 -10 -5 -18 -12 -18 -9 0 -12 11 -9 38 4
30 6 33 13 17 4 -11 8 -28 8 -37z m4 -42 c7 -16 -1 -26 -20 -26 -7 0 -13 9
-13 20 0 23 25 27 33 6z m527 -133 c9 -93 14 -109 60 -198 38 -75 49 -106 47
-134 -2 -20 0 -76 4 -126 5 -58 3 -94 -3 -102 -10 -12 -8 -29 6 -64 5 -12 -4
-20 -39 -33 -25 -10 -43 -22 -39 -27 7 -13 58 -11 71 2 7 7 22 7 52 -2 30 -9
47 -9 64 -2 22 10 24 8 39 -39 14 -45 14 -50 -1 -56 -18 -8 -98 -7 -156 1 -22
3 -46 6 -53 6 -7 1 -11 12 -10 29 2 35 -8 52 -33 52 -41 0 -57 -32 -64 -134
-6 -82 -10 -98 -27 -107 -22 -12 -114 -4 -138 11 -13 9 -11 13 9 29 14 10 30
17 35 15 23 -8 39 16 44 66 4 48 3 51 -14 42 -11 -5 -44 -17 -74 -27 -79 -24
-93 -32 -111 -64 -20 -35 -99 -64 -147 -55 -25 5 -31 11 -31 33 0 14 -4 55 -8
91 -5 36 -6 99 -3 140 3 41 1 93 -4 115 -5 22 -9 78 -10 125 -2 68 -7 94 -26
129 -21 39 -23 56 -22 140 1 52 6 98 10 102 4 3 24 9 45 12 36 6 38 4 58 -36
12 -23 56 -96 99 -162 111 -172 139 -233 113 -248 -5 -2 -3 -2 4 -1 7 2 18
-27 29 -74 17 -81 62 -202 74 -202 12 0 36 33 55 78 20 46 45 54 81 27 10 -8
24 -14 29 -14 6 0 1 6 -9 14 -16 12 -17 19 -9 37 9 19 7 27 -14 49 -22 24 -58
137 -84 265 -12 60 -52 144 -87 184 -18 19 -32 45 -32 57 0 13 -9 37 -20 55
-28 46 -26 54 23 68 39 11 199 38 205 35 1 -1 6 -47 12 -102z m-526 27 c14 -5
26 -17 26 -26 0 -13 -6 -15 -32 -10 -38 7 -53 20 -44 35 9 14 18 14 50 1z
m-1307 -127 c-3 -5 -23 -9 -44 -10 l-38 -1 40 12 c41 14 51 13 42 -1z m-224
-18 c-3 -9 -8 -14 -10 -11 -3 3 -2 9 2 15 9 16 15 13 8 -4z m2367 -445 c-8 -5
-18 -10 -21 -10 -11 0 -19 29 -12 46 5 14 9 13 27 -5 18 -19 19 -23 6 -31z
m280 6 c0 -2 -9 -23 -20 -47 -12 -28 -20 -66 -20 -105 0 -85 -13 -116 -58
-135 -34 -14 -116 -19 -127 -7 -3 3 4 13 15 23 14 13 20 14 20 5 0 -20 56 37
75 75 8 18 15 53 15 78 0 60 14 95 42 107 24 9 58 13 58 6z m255 -6 c3 -5 17
-10 29 -10 19 0 25 -7 28 -30 6 -43 -24 -50 -124 -28 l-53 11 30 13 c17 7 39
21 50 33 23 23 31 25 40 11z m-215 -30 c0 -11 -5 -20 -11 -20 -5 0 -7 6 -4 13
4 6 -3 1 -15 -13 l-21 -25 12 25 c10 21 27 39 37 40 1 0 2 -9 2 -20z m-13 -52
c-3 -8 -6 -5 -6 6 -1 11 2 17 5 13 3 -3 4 -12 1 -19z m-20 -60 c-9 -19 -17
-26 -17 -16 0 9 5 20 10 23 6 3 10 14 10 23 0 13 -2 13 -14 -3 -13 -18 -14
-18 -9 9 5 25 7 26 21 12 13 -13 13 -18 -1 -48z m-567 -16 c0 -5 -3 -12 -7
-16 -8 -8 -8 -10 -12 -66 -3 -32 -4 -33 -10 -10 -4 14 -5 30 -1 35 3 6 7 20 8
33 1 19 -2 21 -14 12 -8 -7 -14 -27 -15 -44 0 -17 -4 -49 -9 -71 -7 -30 -8
-22 -3 35 3 41 10 81 15 88 12 13 48 17 48 4z m568 -53 c-3 -8 -7 -3 -11 10
-4 17 -3 21 5 13 5 -5 8 -16 6 -23z m-18 -28 c0 -5 -7 -12 -16 -15 -14 -5 -15
-4 -4 9 14 17 20 19 20 6z m275 -9 c-3 -3 -11 0 -18 7 -9 10 -8 11 6 5 10 -3
15 -9 12 -12z"/>
<path d="M718 3943 c7 -3 16 -2 19 1 4 3 -2 6 -13 5 -11 0 -14 -3 -6 -6z"/>
<path d="M847 3877 c-3 -9 -13 -17 -22 -17 -13 0 -14 -4 -4 -22 12 -22 12 -22
26 6 8 15 13 32 10 39 -2 6 -6 4 -10 -6z"/>
<path d="M715 3870 c3 -5 8 -10 11 -10 2 0 4 5 4 10 0 6 -5 10 -11 10 -5 0 -7
-4 -4 -10z"/>
<path d="M917 3783 c-4 -6 5 -20 20 -33 20 -18 23 -24 12 -31 -26 -16 -42 -10
-36 12 5 17 0 14 -22 -12 -25 -29 -30 -32 -45 -20 -24 20 -28 9 -11 -32 17
-42 30 -49 23 -14 -4 20 2 25 53 41 49 16 57 22 55 42 0 13 -6 24 -13 24 -7 0
-16 7 -21 16 -5 9 -12 12 -15 7z"/>
<path d="M720 3761 c0 -6 4 -13 10 -16 6 -3 7 1 4 9 -7 18 -14 21 -14 7z"/>
<path d="M944 3469 c-3 -6 -16 -9 -28 -7 -16 3 -21 -1 -21 -17 0 -12 5 -22 12
-22 6 0 9 6 6 12 -2 7 7 15 21 19 14 3 26 11 26 16 0 13 -7 13 -16 -1z"/>
<path d="M835 3441 c3 -2 0 -10 -5 -17 -8 -9 -3 -15 20 -25 16 -8 30 -20 30
-26 0 -7 5 -13 10 -13 15 0 12 12 -11 40 -11 14 -18 19 -14 13 7 -15 -11 -18
-20 -4 -3 5 4 12 15 16 25 8 17 24 -10 22 -10 -1 -17 -3 -15 -6z"/>
<path d="M951 3431 c-7 -5 -9 -11 -4 -14 5 -3 15 -2 22 2 7 5 9 11 4 14 -5 3
-15 2 -22 -2z"/>
<path d="M906 3395 c4 -8 10 -15 15 -15 4 0 6 7 3 15 -4 8 -10 15 -15 15 -4 0
-6 -7 -3 -15z"/>
<path d="M1040 3385 c0 -15 18 -40 24 -34 3 3 -1 14 -9 25 -8 10 -14 15 -15 9z"/>
<path d="M970 3366 c0 -24 30 -46 60 -44 17 1 38 -6 49 -16 12 -11 21 -15 21
-10 0 5 -16 22 -35 37 -19 15 -35 24 -35 20 0 -5 -9 -9 -20 -9 -13 0 -20 7
-20 18 0 10 -4 18 -10 18 -5 0 -10 -6 -10 -14z"/>
<path d="M926 3355 c4 -8 11 -15 16 -15 6 0 5 6 -2 15 -7 8 -14 15 -16 15 -2
0 -1 -7 2 -15z"/>
<path d="M1080 3356 c0 -3 15 -15 33 -27 l32 -23 -24 27 c-22 24 -41 35 -41
23z"/>
<path d="M976 2523 c-6 -14 -5 -15 5 -6 7 7 10 15 7 18 -3 3 -9 -2 -12 -12z"/>
<path d="M926 2058 c-16 -76 -19 -151 -6 -146 8 2 13 32 14 91 1 48 1 87 0 87
-1 0 -5 -15 -8 -32z"/>
<path d="M843 1903 c9 -2 25 -2 35 0 9 3 1 5 -18 5 -19 0 -27 -2 -17 -5z"/>
<path d="M843 1843 c9 -2 23 -2 30 0 6 3 -1 5 -18 5 -16 0 -22 -2 -12 -5z"/>
<path d="M755 1800 c11 -5 34 -9 50 -9 26 0 27 2 10 9 -11 5 -33 9 -50 9 -26
0 -27 -2 -10 -9z"/>
<path d="M913 1803 c9 -2 23 -2 30 0 6 3 -1 5 -18 5 -16 0 -22 -2 -12 -5z"/>
<path d="M1277 3343 c-4 -3 -7 -11 -7 -17 0 -6 5 -5 12 2 6 6 9 14 7 17 -3 3
-9 2 -12 -2z"/>
<path d="M1400 3334 c0 -8 5 -12 10 -9 6 4 8 11 5 16 -9 14 -15 11 -15 -7z"/>
<path d="M1400 3260 c0 -5 5 -10 10 -10 6 0 10 5 10 10 0 6 -4 10 -10 10 -5 0
-10 -4 -10 -10z"/>
<path d="M3330 3069 c0 -5 5 -7 10 -4 6 3 10 8 10 11 0 2 -4 4 -10 4 -5 0 -10
-5 -10 -11z"/>
<path d="M3305 3060 c3 -5 8 -10 11 -10 2 0 4 5 4 10 0 6 -5 10 -11 10 -5 0
-7 -4 -4 -10z"/>
<path d="M3315 3030 c3 -5 8 -10 11 -10 2 0 4 5 4 10 0 6 -5 10 -11 10 -5 0
-7 -4 -4 -10z"/>
<path d="M2545 2169 c-4 -6 -5 -12 -2 -15 2 -3 7 2 10 11 7 17 1 20 -8 4z"/>
<path d="M2525 2130 c-3 -5 3 -10 15 -10 12 0 18 5 15 10 -3 6 -10 10 -15 10
-5 0 -12 -4 -15 -10z"/>
<path d="M2660 2020 c8 -5 20 -10 25 -10 6 0 3 5 -5 10 -8 5 -19 10 -25 10 -5
0 -3 -5 5 -10z"/>
<path d="M2573 2005 c-9 -10 -6 -12 13 -12 13 0 27 4 31 10 4 6 0 8 -10 4 -9
-3 -17 -2 -19 3 -2 4 -8 2 -15 -5z"/>
<path d="M2508 1723 c7 -3 16 -2 19 1 4 3 -2 6 -13 5 -11 0 -14 -3 -6 -6z"/>
<path d="M2550 1720 c0 -6 11 -8 28 -4 39 10 40 14 4 14 -18 0 -32 -5 -32 -10z"/>
<path d="M2558 1683 c6 -2 18 -2 25 0 6 3 1 5 -13 5 -14 0 -19 -2 -12 -5z"/>
<path d="M2576 1640 c-16 -5 -33 -7 -38 -4 -4 3 -8 0 -8 -5 0 -6 5 -11 11 -11
6 0 9 -9 6 -20 -3 -11 -1 -20 4 -20 5 0 9 9 9 20 0 15 7 20 25 20 16 0 25 6
25 15 0 8 -1 15 -2 14 -2 0 -16 -5 -32 -9z"/>
<path d="M2596 1602 c-2 -4 -1 -14 5 -22 7 -12 9 -10 9 8 0 23 -5 28 -14 14z"/>
<path d="M1605 2360 c-3 -5 -1 -10 4 -10 6 0 11 5 11 10 0 6 -2 10 -4 10 -3 0
-8 -4 -11 -10z"/>
<path d="M1438 1833 c6 -2 18 -2 25 0 6 3 1 5 -13 5 -14 0 -19 -2 -12 -5z"/>
<path d="M3365 2100 c3 -5 11 -10 16 -10 6 0 7 5 4 10 -3 6 -11 10 -16 10 -6
0 -7 -4 -4 -10z"/>
<path d="M1165 1611 c11 -5 45 -11 75 -14 l55 -6 -50 14 c-58 15 -114 19 -80
6z"/>
<path d="M1403 1473 c9 -2 25 -2 35 0 9 3 1 5 -18 5 -19 0 -27 -2 -17 -5z"/>
<path d="M1208 1433 c12 -2 30 -2 40 0 9 3 -1 5 -23 4 -22 0 -30 -2 -17 -4z"/>
<path d="M1428 1433 c7 -3 16 -2 19 1 4 3 -2 6 -13 5 -11 0 -14 -3 -6 -6z"/>
<path d="M3218 1473 c6 -2 18 -2 25 0 6 3 1 5 -13 5 -14 0 -19 -2 -12 -5z"/>
<path d="M3224 1428 l-19 -23 23 19 c12 11 22 21 22 23 0 8 -8 2 -26 -19z"/>
<path d="M3138 1413 c6 -2 18 -2 25 0 6 3 1 5 -13 5 -14 0 -19 -2 -12 -5z"/>
<path d="M3170 1386 c0 -9 30 -14 35 -6 4 6 -3 10 -14 10 -12 0 -21 -2 -21 -4z"/>
<path d="M3181 1324 c-1 -20 26 -41 37 -29 3 3 0 5 -7 5 -6 0 -16 10 -21 23
-9 22 -9 22 -9 1z"/>
<path d="M693 1683 c9 -2 23 -2 30 0 6 3 -1 5 -18 5 -16 0 -22 -2 -12 -5z"/>
<path d="M753 1673 c9 -2 25 -2 35 0 9 3 1 5 -18 5 -19 0 -27 -2 -17 -5z"/>
<path d="M818 1663 c7 -3 16 -2 19 1 4 3 -2 6 -13 5 -11 0 -14 -3 -6 -6z"/>
<path d="M738 1553 c12 -2 32 -2 45 0 12 2 2 4 -23 4 -25 0 -35 -2 -22 -4z"/>
<path d="M845 1540 c40 -9 112 -13 104 -6 -2 2 -35 6 -74 9 -54 4 -61 4 -30
-3z"/>
<path d="M718 1503 c7 -3 16 -2 19 1 4 3 -2 6 -13 5 -11 0 -14 -3 -6 -6z"/>
<path d="M813 1493 c9 -2 25 -2 35 0 9 3 1 5 -18 5 -19 0 -27 -2 -17 -5z"/>
<path d="M888 1483 c7 -3 16 -2 19 1 4 3 -2 6 -13 5 -11 0 -14 -3 -6 -6z"/>
<path d="M1868 1413 c6 -2 18 -2 25 0 6 3 1 5 -13 5 -14 0 -19 -2 -12 -5z"/>
<path d="M1710 1400 c-9 -6 -10 -10 -3 -10 6 0 15 5 18 10 8 12 4 12 -15 0z"/>
<path d="M2250 990 c-8 -5 -11 -12 -8 -16 4 -3 14 1 23 10 18 17 9 21 -15 6z"/>
<path d="M2790 960 c-8 -5 -10 -10 -5 -10 6 0 17 5 25 10 8 5 11 10 5 10 -5 0
-17 -5 -25 -10z"/>
<path d="M2710 930 c-9 -6 -10 -10 -3 -10 6 0 15 5 18 10 8 12 4 12 -15 0z"/>
<path d="M2420 820 c-8 -5 -10 -10 -5 -10 6 0 17 5 25 10 8 5 11 10 5 10 -5 0
-17 -5 -25 -10z"/>
<path d="M1491 4043 c0 -108 3 -140 10 -118 11 36 9 254 -3 261 -4 3 -8 -61
-7 -143z"/>
<path d="M3842 4160 c0 -19 2 -27 5 -17 2 9 2 25 0 35 -3 9 -5 1 -5 -18z"/>
<path d="M4143 4130 c0 -36 2 -50 4 -32 2 17 2 47 0 65 -2 17 -4 3 -4 -33z"/>
<path d="M4177 3776 c4 -241 2 -421 -3 -432 -6 -12 -11 60 -14 206 l-6 225 -2
-227 c-2 -222 -1 -228 18 -228 20 0 20 7 20 435 0 269 -4 435 -10 435 -5 0 -7
-154 -3 -414z"/>
<path d="M3843 4015 c0 -22 2 -30 4 -17 2 12 2 30 0 40 -3 9 -5 -1 -4 -23z"/>
<path d="M3523 3668 l2 -33 105 -1 105 0 -102 3 -102 4 -5 29 c-6 29 -6 29 -3
-2z"/>
<path d="M3761 3684 c0 -11 3 -14 6 -6 3 7 2 16 -1 19 -3 4 -6 -2 -5 -13z"/>
<path d="M3750 3629 c0 -5 5 -7 10 -4 6 3 10 8 10 11 0 2 -4 4 -10 4 -5 0 -10
-5 -10 -11z"/>
<path d="M3535 3531 c-6 -11 97 -26 120 -17 8 3 15 10 15 16 0 13 -127 14
-135 1z"/>
<path d="M3750 3466 c0 -77 0 -79 -19 -62 -11 10 -38 20 -60 23 -38 5 -43 2
-40 -23 0 -3 -8 -12 -18 -20 -16 -13 -15 -14 17 -11 20 2 41 7 49 11 7 4 15 5
19 1 3 -3 1 -10 -7 -14 -9 -6 -7 -10 10 -14 29 -8 49 4 23 14 -17 7 -17 8 4 8
16 1 22 -5 22 -21 0 -19 2 -20 10 -8 5 8 10 49 10 90 0 41 -5 82 -10 90 -7 10
-10 -9 -10 -64z m-76 -61 c-4 -8 -12 -15 -20 -15 -8 0 -14 7 -14 15 0 8 9 15
20 15 13 0 18 -5 14 -15z"/>
<path d="M440 3486 c0 -21 31 -76 42 -76 4 0 -2 19 -14 43 -27 53 -28 54 -28
33z"/>
<path d="M3580 3481 c-24 -7 -24 -7 9 -14 37 -8 61 1 40 14 -16 10 -14 10 -49
0z"/>
<path d="M3550 3411 c0 -9 -3 -27 -7 -40 -4 -17 -3 -22 5 -17 7 4 12 19 12 33
0 20 4 24 20 20 11 -3 22 -2 25 3 3 4 -9 10 -25 12 -22 3 -30 1 -30 -11z"/>
<path d="M3476 3331 c-3 -5 0 -14 8 -20 11 -9 15 -8 20 5 3 8 6 18 6 20 0 8
-29 4 -34 -5z"/>
<path d="M3790 3306 c0 -2 8 -10 18 -17 15 -13 16 -12 3 4 -13 16 -21 21 -21
13z"/>
<path d="M3836 3255 c4 -8 11 -15 16 -15 6 0 5 6 -2 15 -7 8 -14 15 -16 15 -2
0 -1 -7 2 -15z"/>
<path d="M3533 3214 c-10 -21 -9 -23 1 -15 7 6 16 8 19 4 9 -9 8 9 -1 24 -5 8
-11 3 -19 -13z"/>
<path d="M3612 3200 c0 -19 2 -27 5 -17 2 9 2 25 0 35 -3 9 -5 1 -5 -18z"/>
<path d="M3582 3185 c0 -36 13 -71 22 -57 4 7 3 18 -2 25 -5 7 -12 21 -15 32
l-5 20 0 -20z"/>
<path d="M3630 3196 c0 -2 8 -10 18 -17 15 -13 16 -12 3 4 -13 16 -21 21 -21
13z"/>
<path d="M3487 3142 c-19 -20 -23 -37 -7 -27 10 6 33 45 27 45 -2 0 -11 -8
-20 -18z"/>
<path d="M3821 3144 c0 -11 3 -14 6 -6 3 7 2 16 -1 19 -3 4 -6 -2 -5 -13z"/>
<path d="M3657 3129 c4 -13 8 -18 11 -10 2 7 -1 18 -6 23 -8 8 -9 4 -5 -13z"/>
<path d="M4184 2895 c0 -132 2 -185 3 -117 2 68 2 176 0 240 -1 64 -3 9 -3
-123z"/>
<path d="M3804 3096 c-3 -14 -12 -26 -19 -26 -7 0 -16 -8 -19 -17 -5 -12 -9
-14 -18 -5 -7 7 -17 12 -22 12 -6 -1 0 -9 13 -20 24 -21 41 -19 41 5 0 8 6 12
14 9 9 -3 15 6 20 27 8 39 0 52 -10 15z"/>
<path d="M3645 3090 c4 -6 11 -8 16 -5 14 9 11 15 -7 15 -8 0 -12 -5 -9 -10z"/>
<path d="M2640 3076 c0 -2 9 -6 20 -9 11 -3 20 -1 20 4 0 5 -9 9 -20 9 -11 0
-20 -2 -20 -4z"/>
<path d="M3480 3040 c12 -17 25 -28 30 -25 13 8 0 35 -16 35 -8 0 -14 5 -14
10 0 6 -5 10 -11 10 -6 0 -1 -14 11 -30z"/>
<path d="M3536 3061 c-4 -5 3 -7 14 -4 23 6 26 13 6 13 -8 0 -17 -4 -20 -9z"/>
<path d="M3540 3040 c-8 -5 -10 -10 -5 -10 6 0 17 5 25 10 8 5 11 10 5 10 -5
0 -17 -5 -25 -10z"/>
<path d="M3510 2991 c0 -5 5 -13 10 -16 6 -3 10 -2 10 4 0 5 -4 13 -10 16 -5
3 -10 2 -10 -4z"/>
<path d="M3568 2987 c-29 -11 -35 -22 -18 -32 5 -3 6 -13 3 -22 -6 -15 -5 -16
9 -3 10 9 12 17 6 21 -14 9 -1 29 18 29 8 0 14 5 14 10 0 6 -1 10 -2 9 -2 -1
-15 -6 -30 -12z"/>
<path d="M3510 2919 c-6 -11 -10 -25 -8 -30 2 -5 8 4 15 21 13 34 9 40 -7 9z"/>
<path d="M3326 2915 c4 -8 8 -15 10 -15 2 0 4 7 4 15 0 8 -4 15 -10 15 -5 0
-7 -7 -4 -15z"/>
<path d="M0 2793 c0 -10 100 -25 109 -17 9 9 -9 15 -58 21 -32 3 -51 2 -51 -4z"/>
<path d="M4152 2730 c0 -14 2 -19 5 -12 2 6 2 18 0 25 -3 6 -5 1 -5 -13z"/>
<path d="M4153 2660 c0 -25 2 -35 4 -22 2 12 2 32 0 45 -2 12 -4 2 -4 -23z"/>
<path d="M4151 2393 c0 -25 1 -26 9 -8 12 27 12 35 0 35 -5 0 -10 -12 -9 -27z"/>
<path d="M0 2311 c0 -10 9 -21 20 -24 23 -6 24 -3 10 24 -14 24 -30 25 -30 0z"/>
<path d="M50 2304 c0 -8 32 -33 43 -34 4 0 7 5 7 11 0 5 -5 7 -10 4 -6 -3 -13
1 -16 9 -6 16 -24 23 -24 10z"/>
<path d="M125 2250 c10 -11 20 -20 22 -20 2 0 -1 9 -7 20 -6 11 -16 20 -22 20
-6 0 -3 -9 7 -20z"/>
<path d="M256 1995 c-3 -8 -16 -16 -28 -16 -20 -1 -21 -2 -3 -6 11 -3 26 -12
33 -21 10 -13 12 -10 12 21 0 39 -4 46 -14 22z"/>
<path d="M4175 2000 c3 -5 8 -10 11 -10 2 0 4 5 4 10 0 6 -5 10 -11 10 -5 0
-7 -4 -4 -10z"/>
<path d="M166 1971 c-4 -5 3 -7 14 -4 23 6 26 13 6 13 -8 0 -17 -4 -20 -9z"/>
<path d="M53 1943 c15 -2 37 -2 50 0 12 2 0 4 -28 4 -27 0 -38 -2 -22 -4z"/>
<path d="M130 1910 c0 -11 4 -20 9 -20 5 0 7 9 4 20 -3 11 -7 20 -9 20 -2 0
-4 -9 -4 -20z"/>
<path d="M160 1896 c0 -23 4 -26 36 -26 31 0 35 3 32 23 -2 17 -11 23 -35 25
-30 3 -33 1 -33 -22z m58 -4 c3 -9 -3 -13 -19 -10 -12 1 -24 9 -27 16 -3 9 3
13 19 10 12 -1 24 -9 27 -16z"/>
<path d="M4175 1900 c-3 -5 -1 -10 4 -10 6 0 11 5 11 10 0 6 -2 10 -4 10 -3 0
-8 -4 -11 -10z"/>
<path d="M90 1859 c0 -6 -14 -9 -35 -6 -19 3 -35 1 -35 -4 0 -16 77 -10 84 6
3 8 1 15 -4 15 -6 0 -10 -5 -10 -11z"/>
<path d="M53 1783 c9 -2 23 -2 30 0 6 3 -1 5 -18 5 -16 0 -22 -2 -12 -5z"/>
<path d="M138 1773 c6 -2 18 -2 25 0 6 3 1 5 -13 5 -14 0 -19 -2 -12 -5z"/>
<path d="M223 1763 c9 -2 23 -2 30 0 6 3 -1 5 -18 5 -16 0 -22 -2 -12 -5z"/>
<path d="M193 1733 c9 -2 23 -2 30 0 6 3 -1 5 -18 5 -16 0 -22 -2 -12 -5z"/>
<path d="M3981 1634 c0 -11 3 -14 6 -6 3 7 2 16 -1 19 -3 4 -6 -2 -5 -13z"/>
<path d="M3940 1600 c0 -24 -5 -31 -27 -36 -16 -3 -39 -9 -53 -13 -23 -7 -21
-9 17 -15 24 -4 45 -12 49 -17 13 -22 21 -5 23 51 1 33 -1 60 -4 60 -3 0 -5
-13 -5 -30z"/>
<path d="M4115 1620 c3 -5 8 -10 11 -10 2 0 4 5 4 10 0 6 -5 10 -11 10 -5 0
-7 -4 -4 -10z"/>
<path d="M4172 1580 c7 -10 14 -18 15 -16 6 6 -9 36 -18 36 -5 0 -4 -9 3 -20z"/>
<path d="M3970 1538 c1 -34 3 -39 11 -25 5 9 17 17 24 17 22 0 18 13 -10 33
l-25 18 0 -43z"/>
<path d="M4100 1532 c0 -17 4 -34 10 -37 6 -4 7 6 3 27 -8 44 -13 48 -13 10z"/>
<path d="M4160 1482 c0 -5 7 -13 16 -16 10 -4 14 -1 12 6 -5 15 -28 23 -28 10z"/>
<path d="M3961 1454 c0 -11 3 -14 6 -6 3 7 2 16 -1 19 -3 4 -6 -2 -5 -13z"/>
<path d="M3858 1353 c6 -2 18 -2 25 0 6 3 1 5 -13 5 -14 0 -19 -2 -12 -5z"/>
<path d="M3950 1350 c0 -5 5 -10 11 -10 5 0 7 5 4 10 -3 6 -8 10 -11 10 -2 0
-4 -4 -4 -10z"/>
<path d="M4005 1350 c5 -8 165 -3 174 6 2 2 -37 4 -88 4 -56 0 -90 -4 -86 -10z"/>
<path d="M3950 1310 c0 -22 24 -27 50 -10 12 8 9 10 -13 10 -16 0 -26 4 -22
10 3 6 1 10 -4 10 -6 0 -11 -9 -11 -20z"/>
<path d="M3818 1303 c6 -2 18 -2 25 0 6 3 1 5 -13 5 -14 0 -19 -2 -12 -5z"/>
<path d="M4047 1303 c18 -2 50 -2 70 0 21 2 7 4 -32 4 -38 0 -55 -2 -38 -4z"/>
<path d="M108 1243 c7 -3 16 -2 19 1 4 3 -2 6 -13 5 -11 0 -14 -3 -6 -6z"/>
<path d="M4111 1246 c12 -10 79 -16 79 -6 0 5 -19 10 -42 10 -23 0 -39 -2 -37
-4z"/>
<path d="M198 1223 c7 -3 16 -2 19 1 4 3 -2 6 -13 5 -11 0 -14 -3 -6 -6z"/>
<path d="M28 1193 c6 -2 18 -2 25 0 6 3 1 5 -13 5 -14 0 -19 -2 -12 -5z"/>
<path d="M88 1183 c7 -3 16 -2 19 1 4 3 -2 6 -13 5 -11 0 -14 -3 -6 -6z"/>
<path d="M3906 1133 c-4 -9 -3 -20 1 -24 4 -4 70 -11 146 -15 l137 -7 0 31 0
31 -61 -23 -60 -23 -46 24 c-55 27 -108 30 -117 6z"/>
<path d="M500 1085 c-7 -9 -11 -18 -8 -20 3 -3 11 1 18 10 7 9 11 18 8 20 -3
3 -11 -1 -18 -10z"/>
<path d="M1480 1060 c-8 -5 -12 -11 -9 -14 3 -3 14 1 25 9 21 16 8 20 -16 5z"/>
<path d="M5 1020 c-3 -5 -2 -10 4 -10 5 0 13 5 16 10 3 6 2 10 -4 10 -5 0 -13
-4 -16 -10z"/>
<path d="M1984 755 c8 -8 18 -15 22 -15 3 0 1 7 -6 15 -7 8 -17 15 -22 15 -5
0 -3 -7 6 -15z"/>
<path d="M1755 741 c-3 -5 0 -13 6 -17 7 -4 9 -3 5 4 -3 5 0 13 6 15 9 4 10 6
1 6 -6 1 -14 -3 -18 -8z"/>
<path d="M1683 683 c9 -2 23 -2 30 0 6 3 -1 5 -18 5 -16 0 -22 -2 -12 -5z"/>
<path d="M1500 655 c0 -5 5 -17 10 -25 5 -8 10 -10 10 -5 0 6 -5 17 -10 25 -5
8 -10 11 -10 5z"/>
<path d="M1195 615 c-25 -12 -26 -14 -5 -9 28 7 60 23 45 23 -5 0 -23 -6 -40
-14z"/>
<path d="M955 580 c-3 -5 -2 -10 4 -10 5 0 13 5 16 10 3 6 2 10 -4 10 -5 0
-13 -4 -16 -10z"/>
<path d="M1100 580 c-8 -5 -10 -10 -5 -10 6 0 17 5 25 10 8 5 11 10 5 10 -5 0
-17 -5 -25 -10z"/>
<path d="M970 525 c-14 -8 -20 -14 -15 -14 6 0 21 6 35 14 14 8 21 14 15 14
-5 0 -21 -6 -35 -14z"/>
<path d="M1720 530 c-8 -5 -10 -10 -5 -10 6 0 17 5 25 10 8 5 11 10 5 10 -5 0
-17 -5 -25 -10z"/>
<path d="M3680 530 c0 -5 21 -10 47 -10 55 0 54 6 -4 15 -27 4 -43 2 -43 -5z"/>
<path d="M1622 493 c-35 -14 -61 -27 -59 -29 3 -4 128 44 136 52 10 10 -19 1
-77 -23z"/>
<path d="M857 483 c-37 -14 -66 -28 -63 -30 4 -4 136 44 145 52 9 10 -15 3
-82 -22z"/>
<path d="M1510 445 c-14 -8 -20 -14 -15 -14 6 0 21 6 35 14 14 8 21 14 15 14
-5 0 -21 -6 -35 -14z"/>
<path d="M705 425 c-25 -12 -26 -14 -5 -9 28 7 60 23 45 23 -5 0 -23 -6 -40
-14z"/>
<path d="M581 380 c-24 -11 -42 -22 -40 -25 3 -2 27 7 54 20 60 29 48 33 -14
5z"/>
<path d="M1290 350 c-8 -5 -10 -10 -5 -10 6 0 17 5 25 10 8 5 11 10 5 10 -5 0
-17 -5 -25 -10z"/>
<path d="M798 293 c7 -3 16 -2 19 1 4 3 -2 6 -13 5 -11 0 -14 -3 -6 -6z"/>
<path d="M1135 290 c-11 -4 -33 -13 -49 -19 -16 -6 -27 -14 -24 -16 3 -3 29 6
59 19 49 23 61 36 14 16z"/>
<path d="M845 280 c11 -5 27 -9 35 -9 9 0 8 4 -5 9 -11 5 -27 9 -35 9 -9 0 -8
-4 5 -9z"/>
<path d="M958 253 c7 -3 16 -2 19 1 4 3 -2 6 -13 5 -11 0 -14 -3 -6 -6z"/>
<path d="M2008 223 c12 -2 30 -2 40 0 9 3 -1 5 -23 4 -22 0 -30 -2 -17 -4z"/>
</g>
</svg>
